<svg width="900" height="700" viewBox="0 0 900 700" fill="none" xmlns="http://www.w3.org/2000/svg">
  <defs>
    <linearGradient id="bg" x1="70" y1="50" x2="820" y2="650" gradientUnits="userSpaceOnUse">
      <stop stop-color="#E9FAF8"/>
      <stop offset="1" stop-color="#FFF4F8"/>
    </linearGradient>
    <filter id="shadow" x="-20%" y="-20%" width="140%" height="140%">
      <feDropShadow dx="0" dy="18" stdDeviation="20" flood-color="#1D5460" flood-opacity="0.12"/>
    </filter>
  </defs>
  <rect x="20" y="20" width="860" height="660" rx="64" fill="url(#bg)"/>
  <circle cx="754" cy="124" r="52" fill="#F7CBDD" opacity="0.75"/>
  <circle cx="119" cy="567" r="72" fill="#BCEDE8" opacity="0.9"/>
  <path d="M737 528C808 506 850 547 845 609C804 622 741 621 693 601C701 568 713 540 737 528Z" fill="#F7D485" opacity="0.72"/>
  <g filter="url(#shadow)">
    <rect x="141" y="102" width="616" height="484" rx="42" fill="white"/>
  </g>
  <rect x="184" y="145" width="254" height="198" rx="30" fill="#E8F8F6"/>
  <circle cx="311" cy="218" r="54" fill="#69C1C1" opacity="0.28"/>
  <path d="M266 300C274 258 292 245 311 245C330 245 350 258 358 300" fill="#69C1C1" opacity="0.65"/>
  <circle cx="307" cy="215" r="29" fill="#F3C7A6"/>
  <path d="M277 210C281 179 332 177 339 214C328 204 315 200 299 204C292 206 285 209 277 210Z" fill="#355E67"/>
  <circle cx="526" cy="224" r="31" fill="#F3C7A6"/>
  <path d="M493 219C502 187 548 189 559 218C546 208 532 205 515 208C507 210 500 215 493 219Z" fill="#6B4F67"/>
  <path d="M476 315C484 268 506 252 526 252C546 252 570 268 579 315" fill="#D86B9E" opacity="0.74"/>
  <path d="M410 207C449 181 470 183 494 193" stroke="#69C1C1" stroke-width="8" stroke-linecap="round" stroke-dasharray="2 18"/>
  <rect x="462" y="137" width="227" height="72" rx="24" fill="#FFF1F6"/>
  <path d="M489 173H624" stroke="#D86B9E" stroke-width="11" stroke-linecap="round"/>
  <path d="M489 188H576" stroke="#F0A9C9" stroke-width="8" stroke-linecap="round"/>
  <path d="M602 209L620 225L626 205" fill="#FFF1F6"/>
  <rect x="184" y="376" width="169" height="147" rx="28" fill="#FFF6DF"/>
  <rect x="207" y="428" width="44" height="44" rx="10" fill="#F1C563"/>
  <rect x="259" y="405" width="44" height="67" rx="10" fill="#69C1C1"/>
  <rect x="311" y="439" width="22" height="33" rx="8" fill="#D86B9E"/>
  <path d="M216 403C228 390 242 391 252 404" stroke="#355E67" stroke-width="7" stroke-linecap="round"/>
  <rect x="379" y="376" width="169" height="147" rx="28" fill="#EAF6FF"/>
  <circle cx="463" cy="425" r="31" fill="#86B8DC" opacity="0.55"/>
  <path d="M419 483C436 459 451 451 464 451C480 451 497 460 513 483" stroke="#5F94BC" stroke-width="13" stroke-linecap="round"/>
  <path d="M433 415C445 400 482 400 494 417" stroke="#355E67" stroke-width="8" stroke-linecap="round"/>
  <rect x="573" y="376" width="142" height="147" rx="28" fill="#F8EAF1"/>
  <path d="M612 429C632 403 673 414 678 445C682 471 651 488 641 497C630 486 599 470 602 445C603 439 606 433 612 429Z" fill="#D86B9E" opacity="0.68"/>
  <circle cx="220" cy="548" r="7" fill="#69C1C1"/>
  <circle cx="244" cy="548" r="7" fill="#D86B9E"/>
  <circle cx="268" cy="548" r="7" fill="#F1C563"/>
</svg>
